<mxfile host="app.diagrams.net" modified="2021-07-28T15:07:22.279Z" agent="5.0 (Windows NT 10.0; Win64; x64) AppleWebKit/537.36 (KHTML, like Gecko) Chrome/92.0.4515.107 Safari/537.36" etag="-VJnO8L_HFH3HN6d39dP" version="14.9.2" type="github">
  <diagram id="6RG4Qhy9XElY_p2nVBXd" name="Page-1">
    <mxGraphModel dx="1240" dy="691" grid="1" gridSize="10" guides="1" tooltips="1" connect="1" arrows="1" fold="1" page="1" pageScale="1" pageWidth="827" pageHeight="1169" math="0" shadow="0">
      <root>
        <mxCell id="0" />
        <mxCell id="1" parent="0" />
        <mxCell id="G7CPv5ygnLzJKhaJEwGf-15" style="edgeStyle=orthogonalEdgeStyle;rounded=0;orthogonalLoop=1;jettySize=auto;html=1;exitX=0.5;exitY=1;exitDx=0;exitDy=0;" edge="1" parent="1" source="G7CPv5ygnLzJKhaJEwGf-1" target="G7CPv5ygnLzJKhaJEwGf-2">
          <mxGeometry relative="1" as="geometry" />
        </mxCell>
        <mxCell id="G7CPv5ygnLzJKhaJEwGf-1" value="&lt;h2&gt;Bắt đầu&lt;/h2&gt;" style="ellipse;whiteSpace=wrap;html=1;" vertex="1" parent="1">
          <mxGeometry x="390" y="130" width="120" height="80" as="geometry" />
        </mxCell>
        <mxCell id="G7CPv5ygnLzJKhaJEwGf-2" value="&lt;h2&gt;Đọc bộ nhớ Flash&lt;/h2&gt;" style="rounded=1;whiteSpace=wrap;html=1;" vertex="1" parent="1">
          <mxGeometry x="390" y="230" width="120" height="60" as="geometry" />
        </mxCell>
        <mxCell id="G7CPv5ygnLzJKhaJEwGf-47" style="edgeStyle=orthogonalEdgeStyle;rounded=0;orthogonalLoop=1;jettySize=auto;html=1;exitX=1;exitY=0.5;exitDx=0;exitDy=0;entryX=0;entryY=0.5;entryDx=0;entryDy=0;" edge="1" parent="1" source="G7CPv5ygnLzJKhaJEwGf-4" target="G7CPv5ygnLzJKhaJEwGf-6">
          <mxGeometry relative="1" as="geometry" />
        </mxCell>
        <mxCell id="G7CPv5ygnLzJKhaJEwGf-4" value="&lt;h2&gt;Xoá bộ nhớ Flash&lt;/h2&gt;" style="rounded=1;whiteSpace=wrap;html=1;" vertex="1" parent="1">
          <mxGeometry x="230" y="430" width="120" height="60" as="geometry" />
        </mxCell>
        <mxCell id="G7CPv5ygnLzJKhaJEwGf-19" style="edgeStyle=orthogonalEdgeStyle;rounded=0;orthogonalLoop=1;jettySize=auto;html=1;exitX=0.5;exitY=1;exitDx=0;exitDy=0;entryX=0.5;entryY=0;entryDx=0;entryDy=0;" edge="1" parent="1" source="G7CPv5ygnLzJKhaJEwGf-5" target="G7CPv5ygnLzJKhaJEwGf-6">
          <mxGeometry relative="1" as="geometry" />
        </mxCell>
        <mxCell id="G7CPv5ygnLzJKhaJEwGf-5" value="&lt;h2&gt;Lưu dữ liệu vào Flash&lt;/h2&gt;" style="rounded=1;whiteSpace=wrap;html=1;" vertex="1" parent="1">
          <mxGeometry x="390" y="330" width="120" height="60" as="geometry" />
        </mxCell>
        <mxCell id="G7CPv5ygnLzJKhaJEwGf-16" style="edgeStyle=orthogonalEdgeStyle;rounded=0;orthogonalLoop=1;jettySize=auto;html=1;exitX=1;exitY=0.5;exitDx=0;exitDy=0;entryX=0;entryY=0.5;entryDx=0;entryDy=0;" edge="1" parent="1" source="G7CPv5ygnLzJKhaJEwGf-6" target="G7CPv5ygnLzJKhaJEwGf-7">
          <mxGeometry relative="1" as="geometry" />
        </mxCell>
        <mxCell id="G7CPv5ygnLzJKhaJEwGf-20" style="edgeStyle=orthogonalEdgeStyle;rounded=0;orthogonalLoop=1;jettySize=auto;html=1;exitX=0.5;exitY=1;exitDx=0;exitDy=0;" edge="1" parent="1" source="G7CPv5ygnLzJKhaJEwGf-6" target="G7CPv5ygnLzJKhaJEwGf-8">
          <mxGeometry relative="1" as="geometry" />
        </mxCell>
        <mxCell id="G7CPv5ygnLzJKhaJEwGf-6" value="&lt;h2&gt;Đọc dữ liệu từ UART&lt;/h2&gt;" style="rounded=1;whiteSpace=wrap;html=1;" vertex="1" parent="1">
          <mxGeometry x="390" y="430" width="120" height="60" as="geometry" />
        </mxCell>
        <mxCell id="G7CPv5ygnLzJKhaJEwGf-7" value="&lt;h2&gt;Hiển thị LCD&lt;/h2&gt;" style="rounded=1;whiteSpace=wrap;html=1;" vertex="1" parent="1">
          <mxGeometry x="564" y="430" width="120" height="60" as="geometry" />
        </mxCell>
        <mxCell id="G7CPv5ygnLzJKhaJEwGf-26" style="edgeStyle=orthogonalEdgeStyle;rounded=0;orthogonalLoop=1;jettySize=auto;html=1;exitX=1;exitY=0.5;exitDx=0;exitDy=0;entryX=0;entryY=0.5;entryDx=0;entryDy=0;" edge="1" parent="1" source="G7CPv5ygnLzJKhaJEwGf-8" target="G7CPv5ygnLzJKhaJEwGf-9">
          <mxGeometry relative="1" as="geometry" />
        </mxCell>
        <mxCell id="G7CPv5ygnLzJKhaJEwGf-27" style="edgeStyle=orthogonalEdgeStyle;rounded=0;orthogonalLoop=1;jettySize=auto;html=1;exitX=1;exitY=0;exitDx=0;exitDy=0;entryX=0.5;entryY=1;entryDx=0;entryDy=0;" edge="1" parent="1" source="G7CPv5ygnLzJKhaJEwGf-8" target="G7CPv5ygnLzJKhaJEwGf-7">
          <mxGeometry relative="1" as="geometry" />
        </mxCell>
        <mxCell id="G7CPv5ygnLzJKhaJEwGf-39" style="edgeStyle=orthogonalEdgeStyle;rounded=0;orthogonalLoop=1;jettySize=auto;html=1;exitX=0.5;exitY=1;exitDx=0;exitDy=0;" edge="1" parent="1" source="G7CPv5ygnLzJKhaJEwGf-8" target="G7CPv5ygnLzJKhaJEwGf-10">
          <mxGeometry relative="1" as="geometry" />
        </mxCell>
        <mxCell id="G7CPv5ygnLzJKhaJEwGf-40" style="edgeStyle=orthogonalEdgeStyle;rounded=0;orthogonalLoop=1;jettySize=auto;html=1;exitX=0.5;exitY=1;exitDx=0;exitDy=0;entryX=0.5;entryY=0;entryDx=0;entryDy=0;" edge="1" parent="1" source="G7CPv5ygnLzJKhaJEwGf-8" target="G7CPv5ygnLzJKhaJEwGf-11">
          <mxGeometry relative="1" as="geometry" />
        </mxCell>
        <mxCell id="G7CPv5ygnLzJKhaJEwGf-8" value="&lt;h2&gt;Kiểm tra báo thức&lt;/h2&gt;" style="rounded=1;whiteSpace=wrap;html=1;" vertex="1" parent="1">
          <mxGeometry x="390" y="534.5" width="120" height="60" as="geometry" />
        </mxCell>
        <mxCell id="G7CPv5ygnLzJKhaJEwGf-9" value="&lt;h2&gt;Mở ngăn, cảnh báo&lt;/h2&gt;" style="rounded=1;whiteSpace=wrap;html=1;" vertex="1" parent="1">
          <mxGeometry x="564" y="535" width="120" height="60" as="geometry" />
        </mxCell>
        <mxCell id="G7CPv5ygnLzJKhaJEwGf-41" style="edgeStyle=orthogonalEdgeStyle;rounded=0;orthogonalLoop=1;jettySize=auto;html=1;exitX=0.5;exitY=1;exitDx=0;exitDy=0;entryX=0.5;entryY=0;entryDx=0;entryDy=0;" edge="1" parent="1" source="G7CPv5ygnLzJKhaJEwGf-10" target="G7CPv5ygnLzJKhaJEwGf-28">
          <mxGeometry relative="1" as="geometry" />
        </mxCell>
        <mxCell id="G7CPv5ygnLzJKhaJEwGf-10" value="&lt;h2&gt;Có đóng ngăn thuốc&lt;/h2&gt;" style="rounded=1;whiteSpace=wrap;html=1;" vertex="1" parent="1">
          <mxGeometry x="310" y="640" width="120" height="60" as="geometry" />
        </mxCell>
        <mxCell id="G7CPv5ygnLzJKhaJEwGf-43" style="edgeStyle=orthogonalEdgeStyle;rounded=0;orthogonalLoop=1;jettySize=auto;html=1;exitX=0.5;exitY=1;exitDx=0;exitDy=0;entryX=0.5;entryY=0;entryDx=0;entryDy=0;" edge="1" parent="1" source="G7CPv5ygnLzJKhaJEwGf-11" target="G7CPv5ygnLzJKhaJEwGf-12">
          <mxGeometry relative="1" as="geometry" />
        </mxCell>
        <mxCell id="G7CPv5ygnLzJKhaJEwGf-11" value="&lt;h2&gt;Quá 30&#39; từ lúc mở ngăn&lt;/h2&gt;" style="rounded=1;whiteSpace=wrap;html=1;" vertex="1" parent="1">
          <mxGeometry x="470" y="640" width="120" height="60" as="geometry" />
        </mxCell>
        <mxCell id="G7CPv5ygnLzJKhaJEwGf-44" style="edgeStyle=orthogonalEdgeStyle;rounded=0;orthogonalLoop=1;jettySize=auto;html=1;exitX=1;exitY=0.5;exitDx=0;exitDy=0;entryX=0;entryY=0.5;entryDx=0;entryDy=0;" edge="1" parent="1" source="G7CPv5ygnLzJKhaJEwGf-12" target="G7CPv5ygnLzJKhaJEwGf-14">
          <mxGeometry relative="1" as="geometry" />
        </mxCell>
        <mxCell id="G7CPv5ygnLzJKhaJEwGf-12" value="&lt;h2&gt;Đóng ngăn, tắt cảnh báo&lt;/h2&gt;" style="rounded=1;whiteSpace=wrap;html=1;" vertex="1" parent="1">
          <mxGeometry x="470" y="740" width="120" height="60" as="geometry" />
        </mxCell>
        <mxCell id="G7CPv5ygnLzJKhaJEwGf-45" style="edgeStyle=orthogonalEdgeStyle;rounded=0;orthogonalLoop=1;jettySize=auto;html=1;exitX=0.5;exitY=0;exitDx=0;exitDy=0;entryX=1;entryY=0.5;entryDx=0;entryDy=0;" edge="1" parent="1" source="G7CPv5ygnLzJKhaJEwGf-14" target="G7CPv5ygnLzJKhaJEwGf-1">
          <mxGeometry relative="1" as="geometry" />
        </mxCell>
        <mxCell id="G7CPv5ygnLzJKhaJEwGf-14" value="&lt;h2&gt;Gửi số lượng thuốc về Blynk app&lt;/h2&gt;" style="rounded=1;whiteSpace=wrap;html=1;" vertex="1" parent="1">
          <mxGeometry x="670" y="740" width="120" height="60" as="geometry" />
        </mxCell>
        <mxCell id="G7CPv5ygnLzJKhaJEwGf-42" style="edgeStyle=orthogonalEdgeStyle;rounded=0;orthogonalLoop=1;jettySize=auto;html=1;exitX=1;exitY=0.5;exitDx=0;exitDy=0;entryX=0;entryY=0.5;entryDx=0;entryDy=0;" edge="1" parent="1" source="G7CPv5ygnLzJKhaJEwGf-28" target="G7CPv5ygnLzJKhaJEwGf-12">
          <mxGeometry relative="1" as="geometry" />
        </mxCell>
        <mxCell id="G7CPv5ygnLzJKhaJEwGf-28" value="&lt;h2&gt;Giảm số lượng thuốc&lt;/h2&gt;" style="rounded=1;whiteSpace=wrap;html=1;" vertex="1" parent="1">
          <mxGeometry x="310" y="740" width="120" height="60" as="geometry" />
        </mxCell>
        <mxCell id="G7CPv5ygnLzJKhaJEwGf-49" style="edgeStyle=orthogonalEdgeStyle;rounded=0;orthogonalLoop=1;jettySize=auto;html=1;exitX=0.5;exitY=1;exitDx=0;exitDy=0;entryX=0.5;entryY=0;entryDx=0;entryDy=0;" edge="1" parent="1" source="G7CPv5ygnLzJKhaJEwGf-46" target="G7CPv5ygnLzJKhaJEwGf-4">
          <mxGeometry relative="1" as="geometry" />
        </mxCell>
        <mxCell id="G7CPv5ygnLzJKhaJEwGf-46" value="&lt;h2&gt;Kiểm tra Reset&lt;/h2&gt;" style="rounded=1;whiteSpace=wrap;html=1;" vertex="1" parent="1">
          <mxGeometry x="230" y="330" width="120" height="60" as="geometry" />
        </mxCell>
      </root>
    </mxGraphModel>
  </diagram>
</mxfile>
